<svg xmlns="http://www.w3.org/2000/svg" viewBox="0 0 80 83"><path d="M78 0H66c-1.1 0-2 .9-2 2v4.2H15.9V2c0-1.1-.9-2-2-2H2C.9 0 0 .9 0 2v12.3c0 1.1.9 2 2 2h11.9c1.1 0 2-.9 2-2v-4.2h22.2c-.2 4.9-12.3 28.2-19.9 42-.4.8-.2 1.8.5 2.5 6.9 5.9 8.5 11.6 9 14.5h-2.6c-1.1 0-2 .9-2 2V81c0 1.1.9 2 2 2H55c1.1 0 2-.9 2-2v-9.9c0-1.1-.9-2-2-2h-2.6c.5-2.9 2.1-8.7 9-14.5.7-.6.9-1.6.5-2.5C54.2 38.4 42.2 15 42 10.1h22v4.2c0 1.1.9 2 2 2h12c1.1 0 2-.9 2-2V2c0-1.1-.9-2-2-2zM11.9 12.3h-8V3.9h8v8.4zM40 45.2c1.4 0 2.6 1.2 2.6 2.6 0 1.4-1.2 2.6-2.6 2.6-1.4 0-2.6-1.2-2.6-2.6.1-1.4 1.2-2.5 2.6-2.6zm13.1 33.7h-26v-6h26v6zm-4.6-10H31.6c-.5-3.3-2.1-9.8-9.2-16.4 2.7-4.9 10.8-19.8 15.6-30.8v19.9c-2.7.9-4.5 3.4-4.5 6.2 0 3.6 2.9 6.5 6.5 6.5s6.5-2.9 6.5-6.5c0-2.8-1.8-5.3-4.5-6.2v-20c5 11 12.9 25.9 15.6 30.9-7 6.7-8.7 13.2-9.1 16.4zM76 12.3h-8V4h8v8.3z" fill-rule="evenodd" clip-rule="evenodd" fill="#3c3c3c"/></svg>