<svg xmlns="http://www.w3.org/2000/svg" viewBox="0 0 79 91"><path d="M21.8 38.1c-.4 0-.8-.2-1.1-.4l-3.1-3.1c-.6-.6-.6-1.6 0-2.2.6-.6 1.6-.6 2.2 0l2 2 5.1-5.1c.6-.6 1.6-.6 2.2 0 .6.6.6 1.6 0 2.2l-6.2 6.2c-.3.2-.7.4-1.1.4zM54.3 35H35.6c-.9 0-1.6-.7-1.6-1.6s.7-1.6 1.6-1.6h18.7c.9 0 1.6.7 1.6 1.6 0 .9-.7 1.6-1.6 1.6zM21.8 64.8c-.4 0-.8-.2-1.1-.4l-3.1-3.1c-.6-.6-.6-1.6 0-2.2.6-.6 1.6-.6 2.2 0l2 2 5.1-5.1c.6-.6 1.6-.6 2.2 0 .6.6.6 1.6 0 2.2l-6.2 6.2c-.3.2-.7.4-1.1.4zm32.5-3.1H35.6c-.9 0-1.6-.7-1.6-1.6s.7-1.6 1.6-1.6h18.7c1.4 0 2.4.2 2.4 1.6 0 1.4-1.1 2.4-2.4 2.4v-.8zM21.8 78.1c-.4 0-.8-.2-1.1-.5l-3.1-3.1c-.6-.6-.6-1.6 0-2.2.6-.6 1.6-.6 2.2 0l2 2 5.1-5.1c.6-.6 1.6-.6 2.2 0 .6.6.6 1.6 0 2.2l-6.2 6.1c-.3.5-.7.6-1.1.6zm32.5-3H35.6c-.9 0-1.6-.7-1.6-1.6s.7-1.6 1.6-1.6h18.7c.4-.8 3.3-.2 4.1.1s1.1 1.3.8 2.1c-.4.8-1.3 1.1-2.1.8-.3-.1-.6-.4-2.8.2zM21.8 51.4c-.4 0-.8-.2-1.1-.4l-3.1-3.1c-.6-.6-.6-1.6 0-2.2.6-.6 1.6-.6 2.2 0l2 2 5.1-5.1c.6-.6 1.6-.6 2.2 0 .6.6.6 1.6 0 2.2L22.9 51c-.3.3-.7.4-1.1.4zm32.5-3H35.6c-.9 0-1.6-.7-1.6-1.6s.7-1.6 1.6-1.6h18.7c.4-.8 3.3-.2 4.1.1s1.1 1.3.8 2.1c-.4.8-1.3 1.1-2.1.8-.3-.1-.6-.4-2.8.2zm22.6-37H58.4c-.2-3.2-2.9-5.7-6.1-5.7h-6c0-3.2-2.7-5.8-5.9-5.7-3.1 0-5.7 2.6-5.7 5.7h-6c-3.2 0-5.9 2.5-6.1 5.7H2.1c-1.2 0-2.1.9-2.1 2.1v75.4C0 90.1.9 91 2.1 91h74.8c1.2 0 2.1-.9 2.1-2.1V13.5c0-1.2-1-2.1-2.1-2.1zm-50.2.4c0-1.1.9-2 2-2h6.5c2 0 3.6-1.6 3.6-3.6v-.4c0-.9.7-1.6 1.6-1.6s1.6.7 1.6 1.6v.5c0 2 1.6 3.6 3.6 3.6h6.5c1.1 0 2 .9 2 2v4.3H26.7v-4.4zm48.1 75H4.2V15.6h18.4v2.6c0 1.1.9 2.1 2.1 2.1h31.7c1.1 0 2.1-.9 2.1-2.1v-2.6h16.4l-.1 71.2zM40.5 10.1c1.1 0 2 .9 2 2s-.9 2-2 2-2-.9-2-2 .9-2 2-2z" fill-rule="evenodd" clip-rule="evenodd" fill="#3c3c3c"/></svg>